<svg width="18" height="18" viewBox="0 0 18 18" fill="none" xmlns="http://www.w3.org/2000/svg">
<path d="M1.92829 3.21429C1.5873 3.21429 1.26027 3.34975 1.01916 3.59086C0.778037 3.83198 0.642578 4.15901 0.642578 4.5V16.0714C0.642578 16.4124 0.778037 16.7394 1.01916 16.9806C1.26027 17.2217 1.5873 17.3571 1.92829 17.3571H16.0711C16.4121 17.3571 16.7392 17.2217 16.9803 16.9806C17.2214 16.7394 17.3569 16.4124 17.3569 16.0714V4.5C17.3569 4.15901 17.2214 3.83198 16.9803 3.59086C16.7392 3.34975 16.4121 3.21429 16.0711 3.21429H13.4997" stroke="#000001" stroke-linecap="round" stroke-linejoin="round"/>
<path d="M0.642578 8.35715H17.3569" stroke="#000001" stroke-linecap="round" stroke-linejoin="round"/>
<path d="M4.5 0.64286V5.78572" stroke="#000001" stroke-linecap="round" stroke-linejoin="round"/>
<path d="M13.5 0.64286V5.78572" stroke="#000001" stroke-linecap="round" stroke-linejoin="round"/>
<path d="M4.5 3.21429H10.9286" stroke="#000001" stroke-linecap="round" stroke-linejoin="round"/>
</svg>
