<svg width="22" height="22" viewBox="0 0 22 22" fill="none" xmlns="http://www.w3.org/2000/svg">
<path d="M18.9641 0.5H2.46411C1.86737 0.5 1.29508 0.737053 0.873121 1.15901C0.451164 1.58097 0.214111 2.15326 0.214111 2.75L0.214111 19.25C0.214111 19.8467 0.451164 20.419 0.873121 20.841C1.29508 21.2629 1.86737 21.5 2.46411 21.5H8.89771V14.3605H5.94458V11H8.89771V8.43875C8.89771 5.52547 10.6321 3.91625 13.2885 3.91625C14.5607 3.91625 15.891 4.14313 15.891 4.14313V7.0025H14.4252C12.981 7.0025 12.5305 7.89875 12.5305 8.81797V11H15.7546L15.239 14.3605H12.5305V21.5H18.9641C19.5608 21.5 20.1331 21.2629 20.5551 20.841C20.9771 20.419 21.2141 19.8467 21.2141 19.25V2.75C21.2141 2.15326 20.9771 1.58097 20.5551 1.15901C20.1331 0.737053 19.5608 0.5 18.9641 0.5Z" fill="white"/>
</svg>
