<svg width="22" height="22" viewBox="0 0 22 22" fill="none" xmlns="http://www.w3.org/2000/svg">
<path d="M10.9641 8.49969C10.4696 8.49987 9.98632 8.64667 9.57527 8.92152C9.16422 9.19637 8.84389 9.58693 8.65479 10.0438C8.46569 10.5007 8.41631 11.0034 8.51289 11.4884C8.60947 11.9733 8.84768 12.4187 9.19739 12.7683C9.5471 13.1179 9.99262 13.3559 10.4776 13.4523C10.9626 13.5487 11.4653 13.4992 11.9221 13.3099C12.3789 13.1206 12.7694 12.8002 13.044 12.389C13.3187 11.9778 13.4654 11.4945 13.4654 11C13.4649 10.3369 13.2012 9.70105 12.7322 9.23223C12.2632 8.76341 11.6272 8.49994 10.9641 8.49969V8.49969ZM16.8099 6.57781C16.6826 6.25524 16.4904 5.96226 16.2452 5.71705C16 5.47184 15.707 5.27963 15.3844 5.15234C14.4 4.76375 12.0563 4.85094 10.9641 4.85094C9.87192 4.85094 7.53052 4.76047 6.54333 5.15234C6.22076 5.27963 5.92778 5.47184 5.68257 5.71705C5.43736 5.96226 5.24515 6.25524 5.11786 6.57781C4.72974 7.56219 4.81646 9.90828 4.81646 10.9995C4.81646 12.0908 4.72974 14.4341 5.11974 15.4217C5.24702 15.7443 5.43923 16.0373 5.68444 16.2825C5.92965 16.5277 6.22263 16.7199 6.5452 16.8472C7.52958 17.2358 9.87333 17.1486 10.966 17.1486C12.0586 17.1486 14.3991 17.2391 15.3863 16.8472C15.7089 16.7199 16.0019 16.5277 16.2471 16.2825C16.4923 16.0373 16.6845 15.7443 16.8118 15.4217C17.2032 14.4373 17.1132 12.0913 17.1132 11C17.1132 9.90875 17.2032 7.56594 16.8118 6.57828L16.8099 6.57781ZM10.9641 14.8438C10.2039 14.8438 9.46074 14.6183 8.82864 14.196C8.19654 13.7736 7.70387 13.1733 7.41295 12.4709C7.12203 11.7686 7.04591 10.9957 7.19422 10.2501C7.34253 9.50451 7.70861 8.81962 8.24617 8.28206C8.78373 7.7445 9.46862 7.37842 10.2142 7.23011C10.9598 7.08179 11.7327 7.15791 12.4351 7.44884C13.1374 7.73976 13.7377 8.23243 14.1601 8.86453C14.5824 9.49663 14.8079 10.2398 14.8079 11C14.8085 11.5049 14.7095 12.005 14.5165 12.4717C14.3236 12.9383 14.0405 13.3623 13.6834 13.7193C13.3264 14.0764 12.9024 14.3595 12.4358 14.5524C11.9692 14.7454 11.4691 14.8444 10.9641 14.8438V14.8438ZM14.9663 7.89219C14.7888 7.89228 14.6153 7.83974 14.4677 7.74121C14.3201 7.64268 14.205 7.5026 14.1371 7.33866C14.0691 7.17473 14.0513 6.99432 14.0858 6.82026C14.1204 6.64619 14.2058 6.48628 14.3313 6.36076C14.4567 6.23524 14.6166 6.14974 14.7906 6.11509C14.9647 6.08043 15.1451 6.09817 15.3091 6.16606C15.473 6.23395 15.6132 6.34895 15.7118 6.4965C15.8104 6.64405 15.863 6.81753 15.863 6.995C15.8635 7.11285 15.8407 7.22964 15.796 7.33866C15.7512 7.44769 15.6854 7.54681 15.6023 7.63034C15.5191 7.71387 15.4203 7.78016 15.3115 7.82542C15.2027 7.87067 15.086 7.894 14.9682 7.89406L14.9663 7.89219ZM19.2141 0.5H2.71411C2.11737 0.5 1.54508 0.737053 1.12312 1.15901C0.701164 1.58097 0.464111 2.15326 0.464111 2.75L0.464111 19.25C0.464111 19.8467 0.701164 20.419 1.12312 20.841C1.54508 21.2629 2.11737 21.5 2.71411 21.5H19.2141C19.8108 21.5 20.3831 21.2629 20.8051 20.841C21.2271 20.419 21.4641 19.8467 21.4641 19.25V2.75C21.4641 2.15326 21.2271 1.58097 20.8051 1.15901C20.3831 0.737053 19.8108 0.5 19.2141 0.5V0.5ZM18.4116 14.0938C18.3511 15.2952 18.0769 16.3597 17.1999 17.2344C16.3229 18.1091 15.2593 18.3889 14.0593 18.4461C12.8213 18.5159 9.10974 18.5159 7.87177 18.4461C6.67036 18.3856 5.60958 18.1109 4.73114 17.2344C3.85271 16.3578 3.57661 15.2928 3.51942 14.0938C3.44958 12.8553 3.44958 9.14328 3.51942 7.90625C3.57989 6.70484 3.85083 5.64031 4.73114 4.76562C5.61146 3.89094 6.67505 3.61438 7.87177 3.55719C9.10974 3.48734 12.8213 3.48734 14.0593 3.55719C15.2607 3.61766 16.3247 3.89234 17.1999 4.76891C18.075 5.64547 18.3544 6.71047 18.4116 7.91187C18.4815 9.14562 18.4815 12.8544 18.4116 14.0938Z" fill="white"/>
</svg>
