<svg width="22" height="22" viewBox="0 0 22 22" fill="none" xmlns="http://www.w3.org/2000/svg">
<path d="M19.2141 0.5H2.71411C1.47192 0.5 0.464111 1.50781 0.464111 2.75V19.25C0.464111 20.4922 1.47192 21.5 2.71411 21.5H19.2141C20.4563 21.5 21.4641 20.4922 21.4641 19.25V2.75C21.4641 1.50781 20.4563 0.5 19.2141 0.5ZM16.9219 7.94375C16.9313 8.075 16.9313 8.21094 16.9313 8.34219C16.9313 12.4062 13.8375 17.0891 8.18442 17.0891C6.44067 17.0891 4.82349 16.5828 3.46411 15.7109C3.71255 15.7391 3.95161 15.7484 4.20474 15.7484C5.6438 15.7484 6.96567 15.2609 8.02036 14.4359C6.67036 14.4078 5.53599 13.5219 5.14692 12.3031C5.62036 12.3734 6.04692 12.3734 6.53442 12.2469C5.12817 11.9609 4.07349 10.7234 4.07349 9.22812V9.19062C4.4813 9.42031 4.95942 9.56094 5.46099 9.57969C5.03931 9.2992 4.69363 8.91869 4.4548 8.4721C4.21597 8.02552 4.09141 7.52675 4.09224 7.02031C4.09224 6.44844 4.24224 5.92344 4.50942 5.46875C6.02349 7.33437 8.29692 8.55313 10.8469 8.68438C10.411 6.59844 11.9719 4.90625 13.8469 4.90625C14.7329 4.90625 15.5297 5.27656 16.0922 5.87656C16.786 5.74531 17.4516 5.4875 18.0422 5.13594C17.8125 5.84844 17.3297 6.44844 16.6922 6.82812C17.311 6.7625 17.911 6.58906 18.4641 6.35C18.0469 6.96406 17.5219 7.50781 16.9219 7.94375Z" fill="white"/>
</svg>
